# ProBuilder 5.0.3
# https://unity3d.com/unity/features/worldbuilding/probuilder
# 11/3/2024 7:48:52 PM

mtllib ./GFwalls.mtl
o GFwalls

g Walls
v -0.5 -0.5 0.5
v -0.5 0.5 0.5
v 0.5 0.5 0.5
v 0.5 -0.5 0.5
v -0.5 0.5 -0.5
v 0.5 0.5 -0.5
v -0.5 -0.5 -0.5
v 0.5 -0.5 -0.5
v 31.33509 -0.5000002 2.991634
v 31.33509 0.5000002 2.991634
v 31.33509 0.5000002 2.770031
v 31.33509 -0.5000002 2.770031
v 26.8225 0.5000002 2.99163
v 26.82251 0.5000002 2.770028
v 26.8225 -0.5000002 2.99163
v 26.82251 -0.5000002 2.770028
v 62.33205 -1.670139 7.865124
v 62.33205 0.5000002 7.865124
v 62.33206 0.5000002 7.643521
v 62.33206 -1.670139 7.643521
v 31.33195 0.5000002 7.865103
v 31.33195 0.5000002 7.643501
v 31.33195 -1.670139 7.865103
v 31.33195 -1.670139 7.643501
v 26.85139 -1.670139 7.865129
v 26.85139 0.5000002 7.865129
v 26.85139 0.5000002 7.643527
v 26.85139 -1.670139 7.643527
v -22.14738 0.5000002 7.865097
v -22.14738 0.5000002 7.643494
v -22.14738 -1.670139 7.865097
v -22.14738 -1.670139 7.643494
v 31.33509 -0.5000002 7.866885
v 31.33509 0.5000002 7.866885
v 31.33509 0.5000002 7.645283
v 31.33509 -0.5000002 7.645283
v 26.8225 0.5000002 7.866882
v 26.82251 0.5000002 7.645279
v 26.8225 -0.5000002 7.866882
v 26.82251 -0.5000002 7.645279
v 62.33058 -1.670139 -4.987799
v 62.33058 0.5000002 -4.987799
v 62.33058 0.5000002 -5.209401
v 62.33058 -1.670139 -5.209401
v -21.66658 0.5000002 -4.987853
v -21.66658 0.5000002 -5.209455
v -21.66658 -1.670139 -4.987853
v -21.66658 -1.670139 -5.209455
v 38.332 -1.670139 -1.663725
v 38.332 0.5000002 -1.663725
v 39.332 0.5000002 -1.663725
v 39.332 -1.670139 -1.663725
v 38.332 0.5000002 -5.209492
v 39.332 0.5000002 -5.209492
v 38.332 -1.670139 -5.209492
v 39.332 -1.670139 -5.209492
v 63.332 0.5000002 7.865026
v 63.332 -1.670139 7.865026
v 62.332 0.5000002 -5.20934
v 63.332 0.5000002 -5.20934
v 62.332 -1.670139 -5.20934
v 63.332 -1.670139 -5.20934
v -22.668 -1.670139 7.865026
v -22.668 0.5000002 7.865026
v -21.668 0.5000002 7.865026
v -21.668 -1.670139 7.865026
v -22.668 0.5000002 -5.209339
v -21.668 0.5000002 -5.209339
v -22.668 -1.670139 -5.209339
v -21.668 -1.670139 -5.209339
v 8.136211 -1.670139 1.660255
v 8.136211 0.5000002 1.660255
v 8.136215 0.5000002 1.438653
v 8.136215 -1.670139 1.438653
v -22.14581 0.5000002 1.660237
v -22.14581 0.5000002 1.438634
v -22.14581 -1.670139 1.660237
v -22.14581 -1.670139 1.438634
v 0.4952126 -1.670139 0.4828033
v 0.4952126 0.5000002 0.4828033
v -0.5047874 0.5000002 0.4828016
v -0.5047874 -1.670139 0.4828016
v 0.4951899 0.5000002 1.481837
v -0.5048102 0.5000002 1.481835
v 0.4951899 -1.670139 1.481837
v -0.5048102 -1.670139 1.481835
v 38.332 -1.670139 7.643599
v 38.332 0.5000002 7.643599
v 39.332 0.5000002 7.643599
v 39.332 -1.670139 7.643599
v 38.332 0.5000002 2.768169
v 39.332 0.5000002 2.768169
v 38.332 -1.670139 2.768169
v 39.332 -1.670139 2.768169
v 0.4952615 -1.670139 -5.129866
v 0.4952615 0.5000002 -5.129866
v -0.5047386 0.5000002 -5.129868
v -0.5047386 -1.670139 -5.129868
v 0.49514 0.5000002 -0.4631989
v -0.50486 0.5000002 -0.4632006
v 0.49514 -1.670139 -0.4631989
v -0.50486 -1.670139 -0.4632006
v 38.83238 -1.670139 2.991634
v 38.83238 0.5000002 2.991634
v 38.83239 0.5000002 2.770032
v 38.83239 -1.670139 2.770032
v 31.28681 0.5000002 2.991629
v 31.28682 0.5000002 2.770027
v 31.28681 -1.670139 2.991629
v 31.28682 -1.670139 2.770027
v 20.36267 -1.670139 1.660248
v 20.36267 0.5000002 1.660248
v 20.36267 0.5000002 1.438646
v 20.36267 -1.670139 1.438646
v 12.46773 0.5000002 1.660243
v 12.46773 0.5000002 1.438641
v 12.46773 -1.670139 1.660243
v 12.46773 -1.670139 1.438641
v 26.83247 -1.670139 2.991634
v 26.83247 0.5000002 2.991634
v 26.83247 0.5000002 2.770032
v 26.83247 -1.670139 2.770032
v 20.83154 0.5000002 2.99163
v 20.83154 0.5000002 2.770028
v 20.83154 -1.670139 2.99163
v 20.83154 -1.670139 2.770028
v 20.332 -1.670139 7.643559
v 20.332 0.5000002 7.643559
v 21.332 0.5000002 7.643559
v 21.332 -1.670139 7.643559
v 20.332 0.5000002 1.438597
v 21.332 0.5000002 1.438597
v 20.332 -1.670139 1.438597
v 21.332 -1.670139 1.438597
v 12.57629 -0.5000002 1.662019
v 12.57629 0.5000002 1.662019
v 12.57629 0.5000002 1.440417
v 12.57629 -0.5000002 1.440417
v 8.063705 0.5000002 1.662016
v 8.063705 0.5000002 1.440414
v 8.063705 -0.5000002 1.662016
v 8.063705 -0.5000002 1.440414

vt 12.36433 6.389431
vt 12.36433 8.693432
vt 12.67683 8.693432
vt 12.67683 6.389431
vt 73.63567 6.78028
vt 73.63567 5.370096
vt 73.32317 5.370096
vt 73.32317 6.78028
vt 73.63567 8.693432
vt 73.63567 6.389431
vt 73.32317 6.389431
vt 73.32317 8.693432
vt 12.36433 5.370096
vt 12.36433 6.78028
vt 12.67683 6.78028
vt 12.67683 5.370096
vt 6.296098 6.389431
vt 6.296098 8.693432
vt 7.706281 8.693432
vt 7.706281 6.389431
vt 5.370096 6.389431
vt 5.370096 8.693432
vt 6.78028 8.693432
vt 6.78028 6.389431
vt 2.782437 6.389431
vt 2.782437 8.693432
vt 3.094937 8.693432
vt 3.094937 6.389431
vt 63.6872 10.29393
vt 65.09739 10.29393
vt 65.09739 9.98143
vt 63.6872 9.981434
vt 10.29492 8.693432
vt 10.29492 6.389431
vt 9.98242 6.389431
vt 9.98242 8.693432
vt 20.90261 10.29392
vt 22.3128 10.29393
vt 22.3128 9.981427
vt 20.90261 9.981423
vt 63.6872 6.389431
vt 63.6872 8.693432
vt 65.09738 8.693432
vt 65.09738 6.389431
vt 20.90261 6.389431
vt 20.90261 8.693432
vt 22.3128 8.693432
vt 22.3128 6.389431
vt -4.091902 3.693432
vt -4.091902 8.693432
vt -3.779402 8.693432
vt -3.779402 3.693432
vt 54.00066 17.16667
vt 63.68819 17.16664
vt 63.68819 16.85414
vt 54.00066 16.85417
vt 17.16643 8.693432
vt 17.16643 3.693432
vt 16.85393 3.693432
vt 16.85393 8.693432
vt 22.3118 17.16644
vt 31.99934 17.16647
vt 31.99934 16.85397
vt 22.3118 16.85394
vt 54.00065 3.693432
vt 54.00065 8.693432
vt 63.68819 8.693432
vt 63.68819 3.693432
vt 22.31181 3.693432
vt 22.31181 8.693432
vt 31.99934 8.693432
vt 31.99934 3.693432
vt -4.090085 3.693432
vt -4.090085 8.693432
vt -3.777587 8.693432
vt -3.777587 3.693432
vt 65.08836 17.16645
vt 80.40048 17.1664
vt 80.40048 16.8539
vt 65.08836 16.85395
vt 5.59952 17.16613
vt 20.91164 17.16618
vt 20.91164 16.85368
vt 5.59952 16.85363
vt 65.08836 3.693432
vt 65.08836 8.693432
vt 80.40048 8.693432
vt 80.40048 3.693432
vt 5.599522 3.693432
vt 5.599522 8.693432
vt 20.91164 8.693432
vt 20.91164 3.693432
vt -4.092563 6.389431
vt -4.092563 8.693432
vt -3.780063 8.693432
vt -3.780063 6.389431
vt 63.68722 17.16892
vt 65.0974 17.16892
vt 65.0974 16.85642
vt 63.68722 16.85642
vt 17.16992 8.693432
vt 17.16992 6.389431
vt 16.85742 6.389431
vt 16.85742 8.693432
vt 20.90261 17.16892
vt 22.31279 17.16892
vt 22.31279 16.85642
vt 20.90261 16.85642
vt 14.0349 3.693432
vt 14.0349 8.693432
vt 14.3474 8.693432
vt 14.3474 3.693432
vt 54.00111 -0.9585218
vt 80.25023 -0.9585991
vt 80.25023 -1.271099
vt 54.00111 -1.271022
vt -0.9585991 8.693432
vt -0.9585991 3.693432
vt -1.271099 3.693432
vt -1.271099 8.693432
vt 5.749773 -0.9585991
vt 31.99888 -0.9585218
vt 31.99888 -1.271022
vt 5.749773 -1.271099
vt 54.00112 3.693432
vt 54.00112 8.693432
vt 80.25023 8.693432
vt 80.25023 3.693432
vt 5.749773 3.693432
vt 5.749773 8.693432
vt 31.99888 8.693432
vt 31.99888 3.693432
vt 24.49933 3.693432
vt 24.49933 8.693432
vt 24.81183 8.693432
vt 24.81183 3.693432
vt 61.50067 3.729031
vt 61.50067 -1.271151
vt 61.18817 -1.271151
vt 61.18817 3.729031
vt 61.50067 8.693432
vt 61.50067 3.693432
vt 61.18817 3.693432
vt 61.18817 8.693432
vt 24.49933 -1.271151
vt 24.49933 3.729031
vt 24.81183 3.729031
vt 24.81183 -1.271151
vt 9.347345 3.693432
vt 9.347345 8.693432
vt 14.34753 8.693432
vt 14.34753 3.693432
vt 3.729031 8.693432
vt 3.729031 3.693432
vt 32.31183 8.693432
vt 32.31183 3.693432
vt 54.00067 17.16632
vt 54.00067 -1.270936
vt 53.68817 -1.270936
vt 53.68817 17.16632
vt 53.68817 3.693432
vt 53.68817 8.693432
vt 31.99933 -1.270936
vt 32.31183 17.16632
vt 32.31183 -1.270936
vt -4.089938 3.693432
vt -4.089938 8.693432
vt -1.270936 3.693432
vt -1.270936 8.693432
vt 5.436827 3.693432
vt 5.436827 8.693432
vt 5.749327 8.693432
vt 5.749327 3.693432
vt 80.56322 17.16632
vt 80.56322 -1.270936
vt 80.25072 -1.270936
vt 80.25072 17.16632
vt 80.56317 8.693432
vt 80.56317 3.693432
vt 80.25067 3.693432
vt 80.25067 8.693432
vt 5.436796 -1.270936
vt 5.4368 17.16632
vt 5.7493 17.16632
vt 5.749296 -1.270936
vt 4.659654 3.693432
vt 4.659654 8.693432
vt 4.972154 8.693432
vt 4.972154 3.693432
vt 70.93686 8.416495
vt 80.39999 8.416467
vt 80.39999 8.103967
vt 70.93685 8.103995
vt 8.416427 8.693432
vt 8.416427 3.693432
vt 8.103927 3.693432
vt 8.103927 8.693432
vt 5.600012 8.416428
vt 15.06314 8.416454
vt 15.06315 8.103954
vt 5.600012 8.103928
vt 70.93685 3.693432
vt 70.93685 8.693432
vt 80.39999 8.693432
vt 80.39999 3.693432
vt 5.60001 3.693432
vt 5.60001 8.693432
vt 15.06314 8.693432
vt 15.06314 3.693432
vt 73.32466 3.693432
vt 73.32466 8.693432
vt 73.63716 8.693432
vt 73.63716 3.693432
vt 73.32467 6.756029
vt 73.32468 8.164848
vt 73.63718 8.164846
vt 73.63717 6.756026
vt 12.67533 8.693432
vt 12.67533 3.693432
vt 12.36283 3.693432
vt 12.36283 8.693432
vt 12.67533 8.164848
vt 12.67533 6.756029
vt 12.36283 6.756026
vt 12.36283 8.164846
vt 6.75625 3.693432
vt 6.75625 8.693432
vt 8.165071 8.693432
vt 8.165071 3.693432
vt 4.911289 3.693432
vt 4.911289 8.693432
vt 6.320108 8.693432
vt 6.320108 3.693432
vt 61.50067 16.85406
vt 61.50067 9.978814
vt 61.18817 9.978814
vt 61.18817 16.85406
vt 24.49933 9.978814
vt 24.49933 16.85406
vt 24.81183 16.85406
vt 24.81183 9.978814
vt 3.097564 8.693432
vt 3.097564 3.693432
vt 9.978814 3.693432
vt 9.978814 8.693432
vt 16.85406 8.693432
vt 16.85406 3.693432
vt 73.32465 -1.158864
vt 73.32469 5.421993
vt 73.63719 5.42199
vt 73.63715 -1.158867
vt 12.67531 5.421993
vt 12.67535 -1.158864
vt 12.36285 -1.158867
vt 12.36281 5.42199
vt -1.158612 3.693432
vt -1.158612 8.693432
vt 5.422245 8.693432
vt 5.422245 3.693432
vt 7.654111 3.693432
vt 7.654111 8.693432
vt 14.23497 8.693432
vt 14.23497 3.693432
vt 2.78117 3.693432
vt 2.78117 8.693432
vt 3.09367 8.693432
vt 3.09367 3.693432
vt 61.3443 10.29396
vt 63.70229 10.29396
vt 63.70229 9.981456
vt 61.3443 9.981463
vt 10.29502 8.693432
vt 10.29502 3.693432
vt 9.982525 3.693432
vt 9.982525 8.693432
vt 22.29771 10.29394
vt 24.6557 10.29394
vt 24.6557 9.981444
vt 22.29771 9.981437
vt 61.34429 3.693432
vt 61.34429 8.693432
vt 63.70228 8.693432
vt 63.70228 3.693432
vt 22.29772 3.693432
vt 22.29772 8.693432
vt 24.65571 8.693432
vt 24.65571 3.693432
vt 67.11609 8.416451
vt 69.58325 8.416444
vt 69.58325 8.103944
vt 67.11609 8.103951
vt 8.416758 8.693432
vt 8.416758 3.693432
vt 8.104258 3.693432
vt 8.104258 8.693432
vt 16.41674 8.416437
vt 18.88391 8.416445
vt 18.88391 8.103945
vt 16.41674 8.103937
vt 67.11609 3.693432
vt 67.11609 8.693432
vt 69.58326 8.693432
vt 69.58326 3.693432
vt 16.41675 3.693432
vt 16.41675 8.693432
vt 18.88392 8.693432
vt 18.88392 3.693432
vt 2.782438 3.693432
vt 3.094938 3.693432
vt 65.09428 10.29396
vt 66.96957 10.29396
vt 66.96957 9.981457
vt 65.09428 9.981462
vt 10.29436 8.693432
vt 10.29436 3.693432
vt 9.981857 3.693432
vt 9.981857 8.693432
vt 19.03043 10.29394
vt 20.90573 10.29394
vt 20.90573 9.981444
vt 19.03044 9.981439
vt 65.09428 3.693432
vt 65.09428 8.693432
vt 66.96957 8.693432
vt 66.96957 3.693432
vt 19.03044 3.693432
vt 19.03044 8.693432
vt 20.90573 8.693432
vt 20.90573 3.693432
vt 18.87433 3.693432
vt 18.87433 8.693432
vt 19.18683 8.693432
vt 19.18683 3.693432
vt 67.12563 16.85401
vt 67.12563 8.103874
vt 66.81313 8.103874
vt 66.81313 16.85401
vt 67.12567 8.693432
vt 67.12567 3.693432
vt 66.81317 3.693432
vt 66.81317 8.693432
vt 18.87437 8.103874
vt 18.87437 16.85401
vt 19.18687 16.85401
vt 19.18687 8.103874
vt 4.97251 8.693432
vt 4.97251 3.693432
vt 4.657437 6.389431
vt 4.657437 8.693432
vt 4.969937 8.693432
vt 4.969937 6.389431
vt 69.54933 8.41895
vt 70.95951 8.418945
vt 70.95951 8.106445
vt 69.54933 8.10645
vt 8.418938 8.693432
vt 8.418938 6.389431
vt 8.106438 6.389431
vt 8.106438 8.693432
vt 15.04049 8.418939
vt 16.45067 8.418943
vt 16.45067 8.106443
vt 15.04049 8.106439
vt 69.54932 6.389431
vt 69.54932 8.693432
vt 70.95951 8.693432
vt 70.95951 6.389431
vt 15.04048 6.389431
vt 15.04048 8.693432
vt 16.45067 8.693432
vt 16.45067 6.389431

vn 0 0 1
vn 0 1 0
vn 0 0 -1
vn 0 -1 0
vn 1 0 0
vn -1 0 0

usemtl Simple_Wall
f 4/4/1 3/3/1 2/2/1 1/1/1
f 3/8/2 6/7/2 5/6/2 2/5/2
f 6/12/3 8/11/3 7/10/3 5/9/3
f 8/16/4 4/15/4 1/14/4 7/13/4
f 8/20/5 6/19/5 3/18/5 4/17/5
f 1/24/6 2/23/6 5/22/6 7/21/6
f 12/28/5 11/27/5 10/26/5 9/25/5
f 11/32/2 14/31/2 13/30/2 10/29/2
f 14/36/6 16/35/6 15/34/6 13/33/6
f 16/40/4 12/39/4 9/38/4 15/37/4
f 16/44/3 14/43/3 11/42/3 12/41/3
f 9/48/1 10/47/1 13/46/1 15/45/1
f 20/52/5 19/51/5 18/50/5 17/49/5
f 19/56/2 22/55/2 21/54/2 18/53/2
f 22/60/6 24/59/6 23/58/6 21/57/6
f 24/64/4 20/63/4 17/62/4 23/61/4
f 24/68/3 22/67/3 19/66/3 20/65/3
f 17/72/1 18/71/1 21/70/1 23/69/1
f 28/76/5 27/75/5 26/74/5 25/73/5
f 27/80/2 30/79/2 29/78/2 26/77/2
f 30/60/6 32/59/6 31/58/6 29/57/6
f 32/84/4 28/83/4 25/82/4 31/81/4
f 32/88/3 30/87/3 27/86/3 28/85/3
f 25/92/1 26/91/1 29/90/1 31/89/1
f 36/96/5 35/95/5 34/94/5 33/93/5
f 35/100/2 38/99/2 37/98/2 34/97/2
f 38/104/6 40/103/6 39/102/6 37/101/6
f 40/108/4 36/107/4 33/106/4 39/105/4
f 40/44/3 38/43/3 35/42/3 36/41/3
f 33/48/1 34/47/1 37/46/1 39/45/1
f 44/112/5 43/111/5 42/110/5 41/109/5
f 43/116/2 46/115/2 45/114/2 42/113/2
f 46/120/6 48/119/6 47/118/6 45/117/6
f 48/124/4 44/123/4 41/122/4 47/121/4
f 48/128/3 46/127/3 43/126/3 44/125/3
f 41/132/1 42/131/1 45/130/1 47/129/1
f 52/136/1 51/135/1 50/134/1 49/133/1
f 51/140/2 54/139/2 53/138/2 50/137/2
f 54/144/3 56/143/3 55/142/3 53/141/3
f 56/148/4 52/147/4 49/146/4 55/145/4
f 56/152/5 54/151/5 51/150/5 52/149/5
f 49/154/6 50/153/6 53/120/6 55/119/6
f 58/156/1 57/155/1 18/71/1 17/72/1
f 57/160/2 60/159/2 59/158/2 18/157/2
f 60/162/3 62/161/3 61/65/3 59/66/3
f 62/165/4 58/164/4 17/62/4 61/163/4
f 62/112/5 60/111/5 57/167/5 58/166/5
f 17/58/6 18/57/6 59/169/6 61/168/6
f 66/173/1 65/172/1 64/171/1 63/170/1
f 65/177/2 68/176/2 67/175/2 64/174/2
f 68/181/3 70/180/3 69/179/3 67/178/3
f 70/185/4 66/184/4 63/183/4 69/182/4
f 70/112/5 68/111/5 65/167/5 66/166/5
f 63/58/6 64/57/6 67/169/6 69/168/6
f 74/189/5 73/188/5 72/187/5 71/186/5
f 73/193/2 76/192/2 75/191/2 72/190/2
f 76/197/6 78/196/6 77/195/6 75/194/6
f 78/201/4 74/200/4 71/199/4 77/198/4
f 78/205/3 76/204/3 73/203/3 74/202/3
f 71/209/1 72/208/1 75/207/1 77/206/1
f 82/213/3 81/212/3 80/211/3 79/210/3
f 81/217/2 84/216/2 83/215/2 80/214/2
f 84/221/1 86/220/1 85/219/1 83/218/1
f 86/225/4 82/224/4 79/223/4 85/222/4
f 86/229/6 84/228/6 81/227/6 82/226/6
f 79/233/5 80/232/5 83/231/5 85/230/5
f 90/136/1 89/135/1 88/134/1 87/133/1
f 89/237/2 92/236/2 91/235/2 88/234/2
f 92/144/3 94/143/3 93/142/3 91/141/3
f 94/241/4 90/240/4 87/239/4 93/238/4
f 94/243/5 92/242/5 89/75/5 90/76/5
f 87/247/6 88/246/6 91/245/6 93/244/6
f 98/213/3 97/212/3 96/211/3 95/210/3
f 97/251/2 100/250/2 99/249/2 96/248/2
f 100/221/1 102/220/1 101/219/1 99/218/1
f 102/255/4 98/254/4 95/253/4 101/252/4
f 102/259/6 100/258/6 97/257/6 98/256/6
f 95/263/5 96/262/5 99/261/5 101/260/5
f 106/267/5 105/266/5 104/265/5 103/264/5
f 105/271/2 108/270/2 107/269/2 104/268/2
f 108/275/6 110/274/6 109/273/6 107/272/6
f 110/279/4 106/278/4 103/277/4 109/276/4
f 110/283/3 108/282/3 105/281/3 106/280/3
f 103/287/1 104/286/1 107/285/1 109/284/1
f 114/189/5 113/188/5 112/187/5 111/186/5
f 113/291/2 116/290/2 115/289/2 112/288/2
f 116/295/6 118/294/6 117/293/6 115/292/6
f 118/299/4 114/298/4 111/297/4 117/296/4
f 118/303/3 116/302/3 113/301/3 114/300/3
f 111/307/1 112/306/1 115/305/1 117/304/1
f 122/309/5 121/27/5 120/26/5 119/308/5
f 121/313/2 124/312/2 123/311/2 120/310/2
f 124/317/6 126/316/6 125/315/6 123/314/6
f 126/321/4 122/320/4 119/319/4 125/318/4
f 126/325/3 124/324/3 121/323/3 122/322/3
f 119/329/1 120/328/1 123/327/1 125/326/1
f 130/333/1 129/332/1 128/331/1 127/330/1
f 129/337/2 132/336/2 131/335/2 128/334/2
f 132/341/3 134/340/3 133/339/3 131/338/3
f 134/345/4 130/344/4 127/343/4 133/342/4
f 134/347/5 132/346/5 129/75/5 130/76/5
f 127/247/6 128/246/6 131/197/6 133/196/6
f 138/351/5 137/350/5 136/349/5 135/348/5
f 137/355/2 140/354/2 139/353/2 136/352/2
f 140/359/6 142/358/6 141/357/6 139/356/6
f 142/363/4 138/362/4 135/361/4 141/360/4
f 142/367/3 140/366/3 137/365/3 138/364/3
f 135/371/1 136/370/1 139/369/1 141/368/1

